<?xml version="1.0" encoding="UTF-8" standalone="no"?>
<svg
   xmlns:dc="http://purl.org/dc/elements/1.1/"
   xmlns:cc="http://creativecommons.org/ns#"
   xmlns:rdf="http://www.w3.org/1999/02/22-rdf-syntax-ns#"
   xmlns:svg="http://www.w3.org/2000/svg"
   xmlns="http://www.w3.org/2000/svg"
   xmlns:sodipodi="http://sodipodi.sourceforge.net/DTD/sodipodi-0.dtd"
   xmlns:inkscape="http://www.inkscape.org/namespaces/inkscape"
   width="320"
   height="200"
   viewBox="0 0 84.666665 52.916668"
   version="1.1"
   id="svg8"
   sodipodi:docname="UI-design.svg"
   inkscape:version="1.0.1 (3bc2e813f5, 2020-09-07, custom)">
  <defs
     id="defs2">
    <filter
       inkscape:collect="always"
       style="color-interpolation-filters:sRGB"
       id="filter1891"
       x="-9.2740631e-06"
       width="1.0000185"
       y="-1.2926981e-05"
       height="1.0000259">
      <feGaussianBlur
         inkscape:collect="always"
         stdDeviation="0.00015576006"
         id="feGaussianBlur1893" />
    </filter>
  </defs>
  <sodipodi:namedview
     id="base"
     pagecolor="#ffffff"
     bordercolor="#666666"
     borderopacity="1.0"
     inkscape:pageopacity="0.0"
     inkscape:pageshadow="2"
     inkscape:zoom="24.854803"
     inkscape:cx="8.5175757"
     inkscape:cy="18.227626"
     inkscape:document-units="mm"
     inkscape:current-layer="layer1"
     inkscape:document-rotation="0"
     showgrid="false"
     units="px"
     inkscape:window-width="2560"
     inkscape:window-height="1364"
     inkscape:window-x="0"
     inkscape:window-y="45"
     inkscape:window-maximized="1">
    <inkscape:grid
       type="xygrid"
       id="grid835" />
  </sodipodi:namedview>
  <metadata
     id="metadata5">
    <rdf:RDF>
      <cc:Work
         rdf:about="">
        <dc:format>image/svg+xml</dc:format>
        <dc:type
           rdf:resource="http://purl.org/dc/dcmitype/StillImage" />
        <dc:title></dc:title>
      </cc:Work>
    </rdf:RDF>
  </metadata>
  <g
     inkscape:label="Layer 1"
     inkscape:groupmode="layer"
     id="layer1"
     style="opacity:1">
    <rect
       style="fill:#e4e4e4;fill-opacity:1;stroke:#000000;stroke-width:0;stroke-miterlimit:4;stroke-dasharray:none;stroke-opacity:0.376186"
       id="rect1967"
       width="79.366035"
       height="52.916664"
       x="5.291667"
       y="5e-07"
       inkscape:label="back" />
    <g
       id="g1928"
       inkscape:label="sidebar-left">
      <rect
         style="display:inline;fill:#fffffe;fill-opacity:1;fill-rule:evenodd;stroke-width:0.0323339"
         id="rect846"
         width="5.2916656"
         height="52.916668"
         x="9.5367432e-07"
         y="-1.0658141e-14"
         inkscape:label="sidebar-back" />
      <rect
         style="display:inline;fill:#f0f0f0;fill-opacity:1;fill-rule:evenodd;stroke-width:0.0323339"
         id="rect10"
         width="5.2916656"
         height="52.916668"
         x="1.2980566e-06"
         y="1.4671913e-06"
         inkscape:label="sidebar" />
    </g>
    <g
       id="g1924"
       inkscape:label="divider"
       transform="translate(0,1.3229167)">
      <path
         style="fill:none;stroke:#000000;stroke-width:0.132292;stroke-linecap:butt;stroke-linejoin:miter;stroke-miterlimit:4;stroke-dasharray:none;stroke-opacity:0.376186"
         d="M 0,5.2916666 H 5.2916666"
         id="path1897" />
      <path
         style="fill:none;stroke:#000000;stroke-width:0.132292;stroke-linecap:butt;stroke-linejoin:miter;stroke-miterlimit:4;stroke-dasharray:none;stroke-opacity:0.376186"
         d="M 0,10.583333 H 5.2916666"
         id="path1899" />
      <path
         style="fill:none;stroke:#000000;stroke-width:0.132292;stroke-linecap:butt;stroke-linejoin:miter;stroke-miterlimit:4;stroke-dasharray:none;stroke-opacity:0.376186"
         d="M 0,15.875 H 5.2916666"
         id="path1901" />
    </g>
    <g
       style="fill:#ffffff;fill-opacity:0.01"
       id="g1775"
       transform="matrix(0.05512153,0,0,0.05512153,1.3297958,2.6458334)"
       inkscape:label="hex">
      <rect
         width="48"
         height="48"
         fill="#ffffff"
         fill-opacity="0.01"
         id="rect1752"
         x="0"
         y="0"
         style="fill:#ffffff;fill-opacity:0.01" />
      <path
         d="M 48,0 H 0 v 48 h 48 z"
         fill="#ffffff"
         fill-opacity="0.01"
         id="path1754"
         style="fill:#ffffff;fill-opacity:0.01" />
      <path
         d="M 24,27 14,21 4,27 v 12 l 10,6 10,-6 z"
         fill="none"
         stroke="#333333"
         stroke-width="4"
         stroke-linecap="round"
         stroke-linejoin="round"
         id="path1756"
         style="fill:#ffffff;fill-opacity:0.01" />
      <path
         d="M 44,27 34,21 24,27 v 12 l 10,6 10,-6 z"
         fill="none"
         stroke="#333333"
         stroke-width="4"
         stroke-linecap="round"
         stroke-linejoin="round"
         id="path1758"
         style="fill:#ffffff;fill-opacity:0.01" />
      <path
         d="M 34,9 24,3 14,9 v 12 l 10,6 10,-6 z"
         fill="none"
         stroke="#333333"
         stroke-width="4"
         stroke-linecap="round"
         stroke-linejoin="round"
         id="path1760"
         style="fill:#ffffff;fill-opacity:0.01" />
    </g>
    <g
       style="fill:#ffffff;fill-opacity:0.01"
       id="g1663"
       transform="matrix(0.05512153,0,0,0.05512153,1.3229167,7.9375)"
       inkscape:label="branch">
      <rect
         width="48"
         height="48"
         fill="#ffffff"
         fill-opacity="0.01"
         id="rect1640"
         x="0"
         y="0"
         style="fill:#ffffff;fill-opacity:0.01" />
      <path
         fill-rule="evenodd"
         clip-rule="evenodd"
         d="m 36,12 c 2.2091,0 4,-1.7909 4,-4 0,-2.20914 -1.7909,-4 -4,-4 -2.2091,0 -4,1.79086 -4,4 0,2.2091 1.7909,4 4,4 z"
         fill="none"
         stroke="#333333"
         stroke-width="4"
         stroke-linecap="round"
         stroke-linejoin="round"
         id="path1642"
         style="fill:#ffffff;fill-opacity:0.01" />
      <path
         fill-rule="evenodd"
         clip-rule="evenodd"
         d="m 14,12 c 2.2091,0 4,-1.7909 4,-4 0,-2.20914 -1.7909,-4 -4,-4 -2.2091,0 -4,1.79086 -4,4 0,2.2091 1.7909,4 4,4 z"
         fill="none"
         stroke="#333333"
         stroke-width="4"
         stroke-linecap="round"
         stroke-linejoin="round"
         id="path1644"
         style="fill:#ffffff;fill-opacity:0.01" />
      <path
         fill-rule="evenodd"
         clip-rule="evenodd"
         d="m 14,44 c 2.2091,0 4,-1.7909 4,-4 0,-2.2091 -1.7909,-4 -4,-4 -2.2091,0 -4,1.7909 -4,4 0,2.2091 1.7909,4 4,4 z"
         fill="none"
         stroke="#333333"
         stroke-width="4"
         stroke-linecap="round"
         stroke-linejoin="round"
         id="path1646"
         style="fill:#ffffff;fill-opacity:0.01" />
      <path
         d="M 14,12 V 36 33 C 14,25 36,24 36,16 V 12"
         stroke="#333333"
         stroke-width="4"
         stroke-linecap="round"
         stroke-linejoin="round"
         id="path1648"
         style="fill:#ffffff;fill-opacity:0.01" />
    </g>
    <g
       style="fill:#ffffff;fill-opacity:0.01"
       id="g1603"
       transform="matrix(0.05512153,0,0,0.05512153,1.3295806,13.229167)"
       inkscape:label="history">
      <rect
         width="48"
         height="48"
         fill="#ffffff"
         fill-opacity="0.01"
         id="rect1583"
         x="0"
         y="0"
         style="fill:#ffffff;fill-opacity:0.01" />
      <path
         d="M 5.81824,6.72729 V 14 H 13.091"
         stroke="#333333"
         stroke-width="4"
         stroke-linecap="round"
         stroke-linejoin="round"
         id="path1585"
         style="fill:#ffffff;fill-opacity:0.01" />
      <path
         d="m 4,24 c 0,11.0457 8.9543,20 20,20 v 0 C 35.0457,44 44,35.0457 44,24 44,12.9543 35.0457,4 24,4 16.598,4 10.1351,8.02111 6.67677,13.9981"
         stroke="#333333"
         stroke-width="4"
         stroke-linecap="round"
         stroke-linejoin="round"
         id="path1587"
         style="fill:#ffffff;fill-opacity:0.01" />
      <path
         d="m 24.005,12 -0.0012,12.0088 8.4794,8.4794"
         stroke="#333333"
         stroke-width="4"
         stroke-linecap="round"
         stroke-linejoin="round"
         id="path1589"
         style="fill:#ffffff;fill-opacity:0.01" />
    </g>
    <g
       id="g1621"
       transform="matrix(0.05512153,0,0,0.05512153,1.3358661,18.520834)"
       style="fill:#ffffff;fill-opacity:0.01"
       inkscape:label="pull">
      <rect
         width="48"
         height="48"
         fill="#ffffff"
         fill-opacity="0.01"
         stroke-linejoin="round"
         stroke-width="4"
         stroke="none"
         fill-rule="evenodd"
         id="rect1605"
         x="0"
         y="0"
         style="fill:#ffffff;fill-opacity:0.01" />
      <g
         transform="translate(7,4)"
         id="g1619"
         style="fill:#ffffff;fill-opacity:0.01">
        <circle
           fill="none"
           fill-rule="nonzero"
           cx="30"
           cy="36"
           r="4"
           stroke-linejoin="round"
           stroke-width="4"
           stroke="#333333"
           id="circle1607"
           style="fill:#ffffff;fill-opacity:0.01" />
        <circle
           fill="none"
           fill-rule="nonzero"
           cx="4"
           cy="4"
           r="4"
           stroke-linejoin="round"
           stroke-width="4"
           stroke="#333333"
           id="circle1609"
           style="fill:#ffffff;fill-opacity:0.01" />
        <circle
           fill="none"
           fill-rule="nonzero"
           cx="4"
           cy="36"
           r="4"
           stroke-linejoin="round"
           stroke-width="4"
           stroke="#333333"
           id="circle1611"
           style="fill:#ffffff;fill-opacity:0.01" />
        <path
           d="M 4,8 V 32"
           stroke-linecap="round"
           stroke-linejoin="round"
           stroke-width="4"
           stroke="#333333"
           fill="none"
           fill-rule="evenodd"
           id="path1613"
           style="fill:#ffffff;fill-opacity:0.01" />
        <path
           d="m 17,6 h 9 c 2.209139,0 4,1.790861 4,4 v 22"
           stroke-linecap="round"
           stroke-linejoin="round"
           stroke-width="4"
           stroke="#333333"
           fill="none"
           fill-rule="evenodd"
           id="path1615"
           style="fill:#ffffff;fill-opacity:0.01" />
        <polyline
           stroke-linecap="round"
           transform="rotate(180,20,6)"
           points="17 0 23 6 17 12"
           stroke-linejoin="round"
           stroke-width="4"
           stroke="#333333"
           fill="none"
           fill-rule="evenodd"
           id="polyline1617"
           style="fill:#ffffff;fill-opacity:0.01" />
      </g>
    </g>
    <g
       style="fill:#ffffff;fill-opacity:0.01"
       id="g1581"
       transform="matrix(0.05512153,0,0,0.05512153,1.3298738,48.947917)"
       inkscape:label="settings">
      <rect
         width="48"
         height="48"
         fill="#ffffff"
         fill-opacity="0.01"
         id="rect1564"
         x="0"
         y="0"
         style="fill:#ffffff;fill-opacity:0" />
      <path
         d="M 34.0003,41 44,24 34.0003,7 H 14.0002 L 4,24 14.0002,41 Z"
         fill="none"
         stroke="#333333"
         stroke-width="4"
         stroke-linejoin="round"
         id="path1566"
         style="fill:#ffffff;fill-opacity:0" />
      <path
         d="m 24,29 c 2.7614,0 5,-2.2386 5,-5 0,-2.7614 -2.2386,-5 -5,-5 -2.7614,0 -5,2.2386 -5,5 0,2.7614 2.2386,5 5,5 z"
         fill="none"
         stroke="#333333"
         stroke-width="4"
         stroke-linejoin="round"
         id="path1568"
         style="fill:#ffffff;fill-opacity:0" />
    </g>
    <rect
       style="fill:#818181;fill-opacity:1;stroke:#000000;stroke-width:0;stroke-miterlimit:4;stroke-dasharray:none;stroke-opacity:0.376186"
       id="rect1971"
       width="84.666664"
       height="1.3229159"
       x="-1.4644669e-07"
       y="-1.4644669e-07"
       inkscape:label="border-top" />
    <circle
       style="fill:#d8d8d8;fill-opacity:1;stroke:#000000;stroke-width:0;stroke-miterlimit:4;stroke-dasharray:none;stroke-opacity:0.376186"
       id="path1973"
       cx="84.005211"
       cy="0.66145831"
       r="0.40878123"
       inkscape:label="close" />
    <circle
       style="fill:#d8d8d8;fill-opacity:1;stroke:#000000;stroke-width:0;stroke-miterlimit:4;stroke-dasharray:none;stroke-opacity:0.376186"
       id="circle1998"
       cx="0.71895003"
       cy="0.66145831"
       r="0.54515463"
       inkscape:label="pyc" />
    <g
       style="display:inline;fill:none"
       id="g1996"
       transform="matrix(0.02204861,0,0,0.02204861,0.19161273,0.12619543)"
       inkscape:label="py">
      <rect
         width="48"
         height="48"
         fill="#ffffff"
         fill-opacity="0.01"
         id="rect1979"
         x="0"
         y="0" />
      <path
         d="M 24,44 42,35 24,4 6,35 Z"
         stroke="#333333"
         stroke-width="4"
         stroke-linecap="round"
         stroke-linejoin="round"
         id="path1981" />
      <path
         d="M 24,44 V 4"
         stroke="#333333"
         stroke-width="4"
         stroke-linecap="round"
         stroke-linejoin="round"
         id="path1983" />
    </g>
  </g>
  <g
     inkscape:groupmode="layer"
     id="layer2"
     inkscape:label="Layer 2"
     style="display:inline;filter:url(#filter1891)" />
  <g
     inkscape:groupmode="layer"
     id="layer3"
     inkscape:label="Layer 3"
     style="display:inline" />
</svg>
